<?xml version="1.0" encoding="utf-8"?>
<!-- Generator: Adobe Illustrator 25.3.0, SVG Export Plug-In . SVG Version: 6.00 Build 0)  -->
<svg version="1.1" id="_x2014_ÎÓÈ_x5F_1" xmlns="http://www.w3.org/2000/svg" xmlns:xlink="http://www.w3.org/1999/xlink"
	 x="0px" y="0px" width="152.8px" height="152.8px" viewBox="0 0 152.8 152.8" style="enable-background:new 0 0 152.8 152.8;"
	 xml:space="preserve">
<style type="text/css">
	.st0{fill:#00954C;}
</style>
<path class="st0" d="M76.4,152.8C34.3,152.8,0,118.5,0,76.4S34.3,0,76.4,0c42.1,0,76.4,34.3,76.4,76.4S118.5,152.8,76.4,152.8z
	 M76.4,4.8C36.9,4.8,4.8,36.9,4.8,76.4S36.9,148,76.4,148c39.5,0,71.6-32.1,71.6-71.6S115.9,4.8,76.4,4.8z"/>
<g>
	<path class="st0" d="M21.5,63.7c1.5,0,2.7-1.2,2.7-2.7c0-1.5-1.2-2.7-2.7-2.7c-1.5,0-2.7,1.2-2.7,2.7C18.8,62.5,20,63.7,21.5,63.7z
		"/>
	<path class="st0" d="M141.9,66.5c-0.6-0.6-1.7-0.6-2.3,0l-8.3,8.3l-6.2-6.2c0,0,0,0,0,0L99.8,43.4c0,0,0,0,0,0l-1.3-1.3l8.3-8.3
		c0.6-0.6,0.6-1.7,0-2.3c-0.6-0.6-1.7-0.6-2.3,0L95.1,41c-0.3,0.3-0.5,0.7-0.5,1.1s0.2,0.8,0.5,1.1l1.7,1.7l-0.5-0.5l-2.6,2.6
		c-1.5,1.5-3.4,2.3-5.5,2.3H80c0,0,0,0,0,0H64.4c-2.1,0-4-0.8-5.5-2.3l-2.6-2.6l1.3-1.3c0.6-0.6,0.6-1.7,0-2.3l-9.4-9.4
		c-0.6-0.6-1.7-0.6-2.3,0s-0.6,1.7,0,2.3l8.3,8.3l-1,1c-0.1,0.1-0.3,0.1-0.4,0.3L29.4,66.8c-0.1,0.1-0.2,0.3-0.3,0.4l-7.6,7.6
		l-8.3-8.3c-0.6-0.6-1.7-0.6-2.3,0s-0.6,1.7,0,2.3l9.4,9.4c0.3,0.3,0.7,0.5,1.1,0.5s0.8-0.2,1.1-0.5l6.5-6.5L41.3,84l-1.8,1.8
		c-2.8,2.8-2.8,7.3,0,10.1c1,1,2.3,1.7,3.7,2c-2.1,2.8-1.9,6.8,0.7,9.3c1.4,1.4,3.2,2.1,5.1,2.1c0.8,0,1.6-0.2,2.3-0.4
		c0.1,1.7,0.8,3.3,2,4.5c1.4,1.4,3.2,2.1,5.1,2.1c0.8,0,1.6-0.2,2.3-0.4c0.1,1.6,0.8,3.3,2,4.5c1.4,1.4,3.1,2.1,5.1,2.1
		s3.7-0.7,5.1-2.1l3.1-3.1c0.1-0.1,0.2-0.3,0.4-0.5c0,0,0,0,0,0l3.5,3.5c1.4,1.4,3.2,2.1,5.1,2.1c1.8,0,3.7-0.7,5.1-2.1
		c1.3-1.3,1.9-2.9,2-4.5c0.8,0.3,1.5,0.4,2.3,0.4c1.8,0,3.7-0.7,5.1-2.1c1.3-1.3,1.9-2.9,2-4.5c0.8,0.3,1.5,0.4,2.3,0.4
		c1.8,0,3.7-0.7,5.1-2.1c1.4-1.3,2.1-3.1,2.1-5.1c0-1.6-0.5-3-1.4-4.3c1.3-0.2,2.5-0.8,3.6-1.8c1.4-1.3,2.2-3.2,2.3-5.1
		c0-2-0.7-3.8-2.1-5.2l-1.8-1.8l12.2-12.2l6.5,6.5c0.3,0.3,0.7,0.5,1.1,0.5s0.8-0.2,1.1-0.5l9.4-9.4
		C142.5,68.2,142.5,67.1,141.9,66.5z M41.8,93.7c-1.5-1.5-1.5-4,0-5.5l3-3c0,0,0,0,0,0c0,0,0,0,0,0l3.3-3.3c0.7-0.7,1.7-1.1,2.8-1.1
		c1,0,2,0.4,2.8,1.1c0.7,0.7,1.1,1.7,1.1,2.8c0,1-0.4,2-1.1,2.8l-3.4,3.4l-2.9,2.9C45.8,95.2,43.3,95.2,41.8,93.7z M53.3,103.3
		C53.3,103.3,53.3,103.3,53.3,103.3l-1.6,1.6c-1.5,1.5-4,1.5-5.5,0c-1.5-1.5-1.5-4,0-5.5l3.4-3.4c0,0,0,0,0,0l1.3-1.3l4.8-4.8
		c0.7-0.7,1.7-1.1,2.8-1.1s2,0.4,2.8,1.1c0.7,0.7,1.1,1.7,1.1,2.8s-0.4,2-1.1,2.8L59.6,97L53.3,103.3z M61.1,111.1
		c-1.5,1.5-4,1.5-5.5,0c-1.5-1.5-1.5-4,0-5.5l6.3-6.3c0.8-0.8,1.8-1.1,2.8-1.1s2,0.4,2.8,1.1c1.5,1.5,1.5,4,0,5.5l-1.6,1.6l-3.1,3.1
		L61.1,111.1z M73.7,114.2l-3.1,3.1c-1.5,1.5-4,1.5-5.5,0c-1.5-1.5-1.5-4,0-5.5l3.1-3.1c0.8-0.8,1.8-1.1,2.8-1.1c1,0,2,0.4,2.8,1.1
		C75.2,110.2,75.2,112.7,73.7,114.2z M110.8,93.7c-1.5,1.4-4,1.3-5.5-0.2l-8.9-8.9c-0.6-0.6-1.7-0.6-2.3,0s-0.6,1.7,0,2.3l4.5,4.5
		c0,0,0,0,0,0l4.4,4.4l3.5,3.5c0.7,0.7,1.1,1.7,1.1,2.8c0,1-0.4,2-1.1,2.8c-1.5,1.5-4,1.5-5.5,0l-1.6-1.6l-6.3-6.3l-4.5-4.5
		c-0.6-0.6-1.7-0.6-2.3,0s-0.6,1.7,0,2.3l4.5,4.5l6.3,6.3c1.5,1.5,1.5,4,0,5.5c-1.5,1.5-4,1.5-5.5,0l-1.6-1.6c0,0,0,0,0,0l-3.1-3.1
		c0,0,0,0,0,0l-6.1-6.1c-0.6-0.6-1.7-0.6-2.3,0c-0.6,0.6-0.6,1.7,0,2.3l9.3,9.3c1.5,1.5,1.5,4,0,5.5c-1.5,1.5-4,1.5-5.5,0l-4.3-4.3
		c0.5-2.3-0.1-4.8-1.9-6.6c-1.3-1.3-2.9-1.9-4.5-2c0.9-2.5,0.3-5.4-1.7-7.4c-1.2-1.2-2.8-1.9-4.5-2c0.9-2.5,0.3-5.4-1.7-7.4
		c-1.4-1.4-3.1-2.1-5.1-2.1c-0.2,0-0.4,0-0.5,0.1c0-0.3,0.1-0.6,0.1-0.9c0-1.9-0.7-3.7-2.1-5.1c-1.3-1.4-3.1-2.1-5.1-2.1
		c-1.9,0-3.7,0.7-5.1,2.1l-2.2,2.2L31.4,69.5L54,46.8l2.6,2.6c2.1,2.1,4.8,3.2,7.8,3.2h3.7L55.9,64.9c-1,1-1.5,2.5-1.2,3.9
		c0.2,1.4,1.2,2.6,2.5,3.2c4.8,2.3,10.6,1.3,14.4-2.5l4.1-4.1l9.5-0.1c0,0,0,0,0,0c1.8,0,3.7,0.7,5,2.1l20.8,20.8
		c0.8,0.8,1.2,1.8,1.1,2.8C112,92,111.6,93,110.8,93.7z M77.2,114.7c0-0.1,0.1-0.1,0.1-0.2C77.3,114.6,77.3,114.7,77.2,114.7z
		 M77.6,113.9c0.1-0.3,0.2-0.6,0.3-0.9C77.8,113.3,77.7,113.6,77.6,113.9z M109.1,81.7l-6.7-6.7c1.7-2.2,2.7-4.9,2.7-7.8
		c0-3.4-1.3-6.6-3.7-9c-0.6-0.6-1.7-0.6-2.3,0s-0.6,1.7,0,2.3c1.8,1.8,2.8,4.2,2.8,6.7c0,2-0.6,3.9-1.7,5.5l-7.7-7.7
		c-1.9-1.9-4.7-3-7.3-3L75,62.1c-0.4,0-0.8,0.2-1.1,0.5l-4.6,4.6c-2.8,2.8-7.1,3.6-10.7,1.9c-0.5-0.2-0.6-0.7-0.6-0.8
		c-0.1-0.4,0.1-0.8,0.3-1l12.4-12.4c1.3-1.3,3.1-2.1,5-2.1h12.6c2.9,0,5.7-1.1,7.8-3.2l2.6-2.6l22.7,22.7L109.1,81.7z"/>
	<path class="st0" d="M131.3,63.7c1.5,0,2.7-1.2,2.7-2.7c0-1.5-1.2-2.7-2.7-2.7c-1.5,0-2.7,1.2-2.7,2.7
		C128.5,62.5,129.8,63.7,131.3,63.7z"/>
</g>
</svg>
