<?xml version="1.0" encoding="utf-8"?>
<!-- Generator: Adobe Illustrator 25.3.0, SVG Export Plug-In . SVG Version: 6.00 Build 0)  -->
<svg version="1.1" id="_x2014_ÎÓÈ_x5F_1" xmlns="http://www.w3.org/2000/svg" xmlns:xlink="http://www.w3.org/1999/xlink"
	 x="0px" y="0px" width="152.8px" height="152.8px" viewBox="0 0 152.8 152.8" style="enable-background:new 0 0 152.8 152.8;"
	 xml:space="preserve">
<style type="text/css">
	.st0{fill:#00954C;}
</style>
<g>
	<path class="st0" d="M98.7,91.2c-2.3,0.1-4.3,1.1-5.8,2.8l-4.1,4.6c-0.4,0.4-1,0.5-1.4,0.2c-0.5-0.3-0.6-0.9-0.3-1.4l14.8-23.5
		c0.9-1.4,1.1-3.2,0.7-4.8c-0.5-1.6-1.6-3-3.2-3.7c-0.7-0.3-1.4-0.5-2.1-0.5c0.5-1.1,0.6-2.4,0.3-3.6c-0.4-1.5-1.3-2.9-2.6-3.7
		c-1.3-0.8-2.9-1.1-4.5-0.8c-1.2,0.3-2.3,0.9-3.1,1.9c-0.5-0.8-1.1-1.5-2-2.1c-1.3-0.8-2.9-1.1-4.5-0.8c-1.5,0.4-2.9,1.3-3.7,2.6
		l-1.8,2.8c-0.4-0.6-0.8-1.2-1.4-1.6c-1.3-1-3-1.4-4.7-1.1c-1.6,0.3-3.1,1.3-4,2.7L52.5,81.7c-1.4,2.2-2.5,4.6-3.2,7
		c-1.1,3.4-1.5,7-1.4,10.6l0.2,4.1l-6.1,9.1l2.7,1.8l6.7-10l-0.3-5.2c-0.2-3.2,0.2-6.4,1.2-9.4c0.7-2.2,1.7-4.3,2.9-6.3l12.9-20.6
		c0.4-0.6,1-1.1,1.8-1.2c0.7-0.1,1.5,0.1,2.1,0.5c1.1,0.8,1.3,2.4,0.5,3.7L66.2,76l0,0l-1.4,2.2l2.8,1.7l12.5-19.8
		c0.4-0.6,1-1,1.7-1.2c0.7-0.2,1.4,0,2,0.3c0.6,0.4,1,1,1.2,1.7c0.2,0.7,0,1.4-0.3,2l-3.3,5.2l-6.2,9.9l0,0l-0.6,1l2.8,1.7l6.9-10.9
		l5.6-8.8c0.4-0.6,1-1,1.7-1.2c0.7-0.2,1.4,0,2,0.3c0.6,0.4,1,1,1.2,1.7c0.2,0.7,0,1.4-0.3,2l-8.4,13.3l0,0l-3.9,6.2l2.8,1.7
		l9.9-15.8c0.8-1.2,2.3-1.7,3.5-1.1c0.7,0.3,1.2,0.9,1.4,1.7c0.2,0.7,0.1,1.5-0.3,2.2L84.3,95.6c-1.2,2-0.7,4.5,1.2,5.9
		c1.8,1.3,4.3,0.9,5.7-0.7l4.1-4.6c0.9-1,2.1-1.6,3.5-1.7c1.4-0.1,2.6,0.4,3.6,1.4c0.2,0.2,0.2,0.6,0,0.8l-14.5,15.5
		c-2.7,2.9-6.5,4.4-10.5,4.1l-5.1-0.3l-7.3,10.9l2.7,1.8l6.2-9.3l3.2,0.2c4.9,0.3,9.7-1.6,13.1-5.1l14.5-15.5c1.5-1.5,1.4-4-0.2-5.4
		C103.1,91.8,100.9,91.1,98.7,91.2z"/>
	<path class="st0" d="M126.5,82.2c-4.1-5.7-6.2-12.4-6.1-19.4l0.1-9c0.1-7.8-2.4-15.6-7.1-21.9l-5.8-7.8L99.8,30
		c-5.6,4.2-12.5,6.5-19.5,6.5c0,0-0.1,0-0.1,0l-10,0c-0.1,0-0.1,0-0.2,0c-7.6,0-15.1,2.5-21.2,7l-8.4,6.2l5.5,7.2
		c3.5,4.6,5.7,10.1,6.4,15.8l3.3-0.4c-0.7-6.3-3.2-12.3-7.1-17.4l-3.4-4.5l5.7-4.2c5.6-4.1,12.4-6.4,19.4-6.3l10,0c0,0,0.1,0,0.1,0
		c7.7,0,15.3-2.5,21.4-7.2l5.1-3.9l3.9,5.1c4.3,5.7,6.6,12.7,6.5,19.8l-0.1,9c-0.1,7.6,2.3,15.2,6.8,21.4l4.6,6.4l-7.3,5.2
		c-4.2,3-9.1,4.9-14.1,5.6l0.5,3.2c5.6-0.8,11-2.9,15.6-6.2l10-7.1L126.5,82.2z"/>
	<rect x="33.1" y="70.7" class="st0" width="13.6" height="3.3"/>
	<rect x="19.7" y="59.7" class="st0" width="21.8" height="3.3"/>
</g>
<path class="st0" d="M76.4,152.8C34.3,152.8,0,118.5,0,76.4S34.3,0,76.4,0c42.1,0,76.4,34.3,76.4,76.4S118.5,152.8,76.4,152.8z
	 M76.4,4.8C36.9,4.8,4.8,36.9,4.8,76.4S36.9,148,76.4,148c39.5,0,71.6-32.1,71.6-71.6S115.9,4.8,76.4,4.8z"/>
</svg>
