<?xml version="1.0" encoding="UTF-8"?> <!-- Generator: Adobe Illustrator 25.4.1, SVG Export Plug-In . SVG Version: 6.00 Build 0) --> <svg xmlns="http://www.w3.org/2000/svg" xmlns:xlink="http://www.w3.org/1999/xlink" version="1.1" id="Layer_1" x="0px" y="0px" viewBox="0 0 49.9 50" style="enable-background:new 0 0 49.9 50;" xml:space="preserve"> <style type="text/css"> .st0{fill:#FFFFFF;} </style> <path class="st0" d="M37.4,16.9c-0.5,3.2-2.9,5.3-5.9,5.6c-3.1,0.2-5.4-1.7-6.6-5.4c-0.4,1.8-1.2,3.2-2.6,4.2c-1.4,1-3,1.4-4.8,1.1 C15,22,12.9,19.8,12.5,17c-0.1,0.3-0.1,0.4-0.2,0.6c-0.7,2.9-3.2,5-6.2,4.9c-3,0-5.5-2.2-6.1-5.2C0,16.8,0,16.2,0.1,15.6 c1.1-4.2,2.2-8.5,3.3-12.7C3.9,0.9,5.1,0,7.2,0C19,0,30.9,0,42.8,0c2,0,3.2,0.9,3.8,2.9c1.1,4.3,2.3,8.7,3.3,13 c0.4,1.7-0.3,3.2-1.4,4.4c-1.7,1.9-3.8,2.6-6.3,2c-2.4-0.6-3.9-2.3-4.5-4.7C37.5,17.4,37.5,17.2,37.4,16.9z"></path> <path class="st0" d="M2.5,25.5c3.6,1.3,6.9,0.8,10-1.5c1.8,1.4,3.9,2.2,6.3,2.2c2.3,0,4.4-0.7,6.2-2.2c4.2,2.9,8.4,2.9,12.6,0 c3,2.3,6.3,2.7,10,1.4c0,0.3,0,0.5,0,0.7c0,6.2,0,12.3,0,18.5c0,3.2-2.1,5.3-5.3,5.3c-5,0-10,0-14.9,0c-6.5,0-13,0-19.4,0 c-2.6,0-4.5-1.4-5.1-3.6c-0.1-0.4-0.2-0.8-0.2-1.2c0-6.4,0-12.8,0-19.3C2.5,25.8,2.5,25.7,2.5,25.5z M40.9,32.4 c-2-1.9-4.3-2.7-7.1-2.2c-4,0.7-6.9,4.9-6,8.9c1.1,4.8,6.6,7.4,11,5.2c2.8-1.4,4.3-4.9,3.4-7.8c-2.4,0-4.9,0-7.3,0c0,1,0,1.9,0,2.9 c1.5,0,3,0,4.4,0c-0.3,1.5-1.7,2.7-3.4,2.8c-2.1,0.2-4.1-1.1-4.8-3c-0.7-1.9-0.1-4.1,1.6-5.3c1.8-1.3,3.9-1.1,6.2,0.6 C39.5,33.7,40.2,33.1,40.9,32.4z"></path> </svg> 