<?xml version="1.0" encoding="UTF-8"?> <svg xmlns="http://www.w3.org/2000/svg" viewBox="0 0 1413.47 390.2"><defs><style>.cls-1{fill:#00ab4e;}.cls-2{fill:none;}.cls-3{fill:#fff;}</style></defs><g id="Logo"><path class="cls-1" d="M1482.18,318.1c8.61,0,16.29,6.19,16.29,15.82s-7.68,15.9-16.29,15.9-16.28-6.23-16.28-15.9S1473.57,318.1,1482.18,318.1Zm0,28.33c6.58,0,12-5.26,12-12.51s-5.38-12.43-12-12.43-12,5.22-12,12.43S1475.53,346.43,1482.18,346.43ZM1475.86,325h6.7c4.46,0,7,1.4,7,5.26,0,3.27-2,4.54-4.67,4.75l4.75,7.76h-3.69l-4.32-7.59h-2.12v7.59h-3.61Zm3.61,7.42h3c1.91,0,3.39-.29,3.39-2.46,0-1.9-2-2.2-3.56-2.2h-2.88Z" transform="translate(-85 -69.43)"></path><path class="cls-1" d="M136.92,399.38c1.15-8-3.22-12.1-10.25-12.1-15.09,0-24.08,14.83-25.89,27.3-1.29,8.92,2.08,16.74,12.76,16.74,8.16,0,15.32-6.1,17.62-12.92h14.72c-8.62,18.11-19.73,24.94-34.26,24.94-18.75,0-28.2-10.47-25.56-28.76,3-21,19.66-39.32,42.25-39.32,15.47,0,26,8.28,23.32,24.12Z" transform="translate(-85 -69.43)"></path><path class="cls-1" d="M183.89,393.46c13.31,0,21.67,6.37,19.71,19.93-2.4,16.57-14.89,29.67-32.51,29.67-13.5,0-21.23-6.82-19.28-20.29C154.11,406.84,166.64,393.46,183.89,393.46Zm-10.74,39.86c9.94,0,16-11.83,17.11-19.74.91-6.28-1.31-10.38-8.25-10.38-9.75,0-15.75,11.65-16.89,19.57C164.31,428.32,166.87,433.32,173.15,433.32Z" transform="translate(-85 -69.43)"></path><path class="cls-1" d="M219.51,394.74h12.75l-2.46,6.64H230a23.92,23.92,0,0,1,18.11-7.92c5.81,0,10.22,2.55,10.53,8.19a24.66,24.66,0,0,1,17.59-8.19c7.59,0,14.16,3.83,13,11.93-.42,2.91-1.7,5.91-2.67,8.73l-10,27.67H263.23L273.91,412a31,31,0,0,0,.86-3.37c.41-2.82-1.71-5-5.09-5-7.12,0-12.19,7.19-14.33,12.92l-9.09,25.21H232.85L243.54,412a31,31,0,0,0,.86-3.37c.41-2.82-1.71-5-5.09-5-7.12,0-12.19,7.19-14.34,12.92l-9.08,25.21H202.58Z" transform="translate(-85 -69.43)"></path><path class="cls-1" d="M304.53,394.74h12.75l-2.46,6.64H315a23.92,23.92,0,0,1,18.11-7.92c5.81,0,10.22,2.55,10.53,8.19a24.66,24.66,0,0,1,17.59-8.19c7.59,0,14.16,3.83,13,11.93-.42,2.91-1.7,5.91-2.67,8.73l-10,27.67H348.25L358.93,412a31,31,0,0,0,.86-3.37c.41-2.82-1.71-5-5.09-5-7.12,0-12.19,7.19-14.34,12.92l-9.08,25.21H317.87L328.56,412a31,31,0,0,0,.86-3.37c.41-2.82-1.71-5-5.09-5-7.12,0-12.19,7.19-14.34,12.92l-9.08,25.21H287.6Z" transform="translate(-85 -69.43)"></path><path class="cls-1" d="M390.47,421.4c-.26,1.19-.38,2-.49,2.73-.79,5.46,2.14,9.19,9.36,9.19,5.34,0,8.47-3.45,10.87-6.46h13.31c-5.75,10.56-13.5,16.2-27.47,16.2-12.93,0-20.52-7.19-18.58-20.57,2.18-15,14.42-29,30.92-29,13.5,0,21.59,6.92,19.61,20.57a40.52,40.52,0,0,1-1.81,7.37Zm24.81-8.19c.7-4.82.23-10-7.55-10-7.5,0-11.93,4.73-14.67,10Z" transform="translate(-85 -69.43)"></path><path class="cls-1" d="M443.36,394.74H456l-3.19,8.46.16.18a21.1,21.1,0,0,1,18.12-9.92,30.73,30.73,0,0,1,4.08.28l-4.53,12.56a27.67,27.67,0,0,0-5.51-.82c-10.22,0-14.95,7.46-17.89,15.47l-7.52,20.84H426.42Z" transform="translate(-85 -69.43)"></path><path class="cls-1" d="M505.21,411c.8-5.55-2-7.83-7.78-7.83-10.12,0-15.3,11.83-16.47,19.93-.82,5.64,1,10.19,7.71,10.19,5.9,0,9.87-4.09,12-8.73H514c-5.73,11.74-15.14,18.47-27.7,18.47-13.5,0-20.62-6.46-18.63-20.2,2.31-16,14.19-29.4,31.62-29.4,11.81,0,20.73,5.1,19.21,17.57Z" transform="translate(-85 -69.43)"></path><path class="cls-1" d="M532.12,394.74h13.41l-17.12,47.05H515Zm16-7.28h-13.4l4-10.65h13.4Z" transform="translate(-85 -69.43)"></path><path class="cls-1" d="M550.77,409c3.4-11.83,14.25-15.57,25.22-15.57,8.62,0,20.08,1.82,18.36,12.38a52.48,52.48,0,0,1-2.17,7.92l-7.06,18.93a31.25,31.25,0,0,0-1.58,6.37,8.94,8.94,0,0,0,.08,2.73H570.31l.67-4.64a23.22,23.22,0,0,1-15.67,5.91c-10.59,0-14.9-5.82-14-12.37,1.31-9,9.16-14.66,20.88-16,12.78-1.46,18.59-.82,19.46-6.83.67-4.64-4.23-5.73-7.61-5.73-4.78,0-9.31,2.18-10.84,6.92Zm26.65,10.19c-3.65,1.91-7.7,2-11.58,2.27-5.14.55-10.09,1.73-11,7.65-.51,3.55,2.7,5.28,6.55,5.28,8.25,0,11.77-5.55,14-10.65Z" transform="translate(-85 -69.43)"></path><path class="cls-1" d="M616.74,376.81h13.31l-23.66,65H593.08Z" transform="translate(-85 -69.43)"></path><path class="cls-1" d="M702.8,399.38c1.16-8-3.21-12.1-10.24-12.1-15.1,0-24.09,14.83-25.89,27.3-1.29,8.92,2.07,16.74,12.76,16.74,8.15,0,15.32-6.1,17.62-12.92h14.72c-8.63,18.11-19.74,24.94-34.27,24.94-18.74,0-28.2-10.47-25.55-28.76,3-21,19.66-39.32,42.25-39.32,15.47,0,26,8.28,23.32,24.12Z" transform="translate(-85 -69.43)"></path><path class="cls-1" d="M736.53,376.81h13.31l-23.65,65H712.88Z" transform="translate(-85 -69.43)"></path><path class="cls-1" d="M755,421.4c-.26,1.19-.38,2-.49,2.73-.79,5.46,2.14,9.19,9.36,9.19,5.34,0,8.47-3.45,10.87-6.46h13.31c-5.75,10.56-13.5,16.2-27.47,16.2-12.93,0-20.52-7.19-18.58-20.57,2.17-15,14.42-29,30.92-29,13.5,0,21.59,6.92,19.61,20.57a40.52,40.52,0,0,1-1.81,7.37Zm24.81-8.19c.7-4.82.23-10-7.55-10-7.5,0-11.93,4.73-14.67,10Z" transform="translate(-85 -69.43)"></path><path class="cls-1" d="M802.45,409c3.4-11.83,14.25-15.57,25.22-15.57,8.62,0,20.08,1.82,18.36,12.38a52.48,52.48,0,0,1-2.17,7.92l-7.06,18.93a31.25,31.25,0,0,0-1.58,6.37,8.94,8.94,0,0,0,.08,2.73H822l.67-4.64A23.22,23.22,0,0,1,807,443.06c-10.59,0-14.9-5.82-14-12.37,1.31-9,9.16-14.66,20.88-16,12.78-1.46,18.59-.82,19.46-6.83.67-4.64-4.23-5.73-7.61-5.73-4.78,0-9.31,2.18-10.84,6.92Zm26.65,10.19c-3.65,1.91-7.7,2-11.58,2.27-5.14.55-10.09,1.73-10.95,7.65-.51,3.55,2.7,5.28,6.55,5.28,8.25,0,11.77-5.55,14-10.65Z" transform="translate(-85 -69.43)"></path><path class="cls-1" d="M861.7,394.74h12.75L872,401.29h.19a24.56,24.56,0,0,1,18.1-7.83c9.18,0,13.51,4.46,12.32,12.65a60.37,60.37,0,0,1-2.58,8.1l-10,27.58H876.73l9.9-27.58a34,34,0,0,0,1.67-5.73c.41-2.82-2.58-4.82-5.68-4.82-8.06,0-13.13,6.55-15.49,13.1l-9.06,25H844.76Z" transform="translate(-85 -69.43)"></path><path class="cls-1" d="M919.16,394.74h13.4l-17.12,47.05H902Zm16-7.28H921.71l4-10.65H939.1Z" transform="translate(-85 -69.43)"></path><path class="cls-1" d="M943.25,394.74H956l-2.45,6.55h.19a24.56,24.56,0,0,1,18.1-7.83c9.18,0,13.51,4.46,12.32,12.65a60.37,60.37,0,0,1-2.58,8.1l-10,27.58H958.28l9.9-27.58a34,34,0,0,0,1.67-5.73c.41-2.82-2.58-4.82-5.68-4.82-8.06,0-13.13,6.55-15.48,13.1l-9.07,25H926.31Z" transform="translate(-85 -69.43)"></path><path class="cls-1" d="M1030.72,439.33c-5.35,14.29-13.63,20.3-29.66,20.3-9.84,0-20.12-4.1-18.49-15.38h13.31c-.87,4.73,3.44,6.73,7.75,6.73,8.43,0,11.91-7.19,15.87-16.38l-.16-.18c-4.12,4.46-8.84,6.64-14.28,6.64-11.53,0-17.54-7.64-15.87-19.2,2-13.74,13-28.4,28.58-28.4,6.65,0,11.76,2.28,13.58,8.47h.19l2.54-7.19h12.75ZM1002.63,421c-.8,5.55,1.31,10.37,7.5,10.37,9.56,0,15.59-9.92,16.75-17.93.86-5.91-1.62-10.19-8.09-10.19C1009.89,403.2,1003.73,413.39,1002.63,421Z" transform="translate(-85 -69.43)"></path><path class="cls-1" d="M1085.6,420.22c-1.8,9.19,4.26,12,12.7,12,5.9,0,13.14-2.73,14.08-9.19s-7.52-7.64-15.51-10.1-16-6.28-14.34-17.47c2.09-14.47,16.52-20.21,29.45-20.21,13.69,0,24.27,5.92,22.09,20.93h-14c1.33-7.28-3.74-9.82-10.58-9.82-5.62,0-12,2.09-12.89,8.09-.93,6.47,10.17,8.1,14.61,9.2,10.11,2.64,17,6.55,15.27,18.2-2.26,15.56-17.64,21.48-30.39,21.48-18.47,0-26.76-7.47-24.5-23.12Z" transform="translate(-85 -69.43)"></path><path class="cls-1" d="M1145.52,421.4c-.27,1.19-.39,2-.49,2.73-.79,5.46,2.13,9.19,9.35,9.19,5.35,0,8.47-3.45,10.87-6.46h13.31c-5.74,10.56-13.49,16.2-27.46,16.2-12.94,0-20.52-7.19-18.58-20.57,2.17-15,14.42-29,30.91-29,13.5,0,21.59,6.92,19.62,20.57a39.72,39.72,0,0,1-1.82,7.37Zm24.8-8.19c.7-4.82.23-10-7.55-10-7.49,0-11.93,4.73-14.66,10Z" transform="translate(-85 -69.43)"></path><path class="cls-1" d="M1198.4,394.74h12.66l-3.2,8.46.16.18a21.12,21.12,0,0,1,18.12-9.92,30.88,30.88,0,0,1,4.09.28l-4.54,12.56a27.68,27.68,0,0,0-5.5-.82c-10.22,0-15,7.46-17.9,15.47l-7.51,20.84h-13.31Z" transform="translate(-85 -69.43)"></path><path class="cls-1" d="M1245.1,441.79h-15.19l.44-47.05H1244l-1.85,33.49h.19l22-33.49h14.06Z" transform="translate(-85 -69.43)"></path><path class="cls-1" d="M1285.37,394.74h13.4l-17.12,47.05h-13.4Zm16-7.28h-13.41l4-10.65h13.41Z" transform="translate(-85 -69.43)"></path><path class="cls-1" d="M1334.85,411c.8-5.55-2-7.83-7.77-7.83-10.13,0-15.31,11.83-16.48,19.93-.82,5.64,1,10.19,7.71,10.19,5.9,0,9.87-4.09,12-8.73h13.31c-5.73,11.74-15.14,18.47-27.7,18.47-13.5,0-20.62-6.46-18.63-20.2,2.32-16,14.19-29.4,31.62-29.4,11.82,0,20.73,5.1,19.21,17.57Z" transform="translate(-85 -69.43)"></path><path class="cls-1" d="M1362.5,421.4c-.27,1.19-.39,2-.49,2.73-.79,5.46,2.14,9.19,9.35,9.19,5.35,0,8.47-3.45,10.88-6.46h13.31c-5.75,10.56-13.5,16.2-27.47,16.2-12.94,0-20.52-7.19-18.58-20.57,2.17-15,14.42-29,30.92-29,13.49,0,21.59,6.92,19.61,20.57a39.72,39.72,0,0,1-1.82,7.37Zm24.81-8.19c.69-4.82.23-10-7.55-10-7.5,0-11.94,4.73-14.67,10Z" transform="translate(-85 -69.43)"></path><path class="cls-1" d="M1437.39,408.48c.49-4-1.52-6.37-6.58-6.37-4.68,0-8.34,1.27-8.82,4.64-.31,2.09,1.1,3.37,5.4,4.73l6.36,2.1c6.79,2.27,11.94,5.55,10.79,13.47-1.68,11.64-14.22,16-25.37,16-9.47,0-20.1-3.64-18.51-14.65l.28-1.91h12.37l-.22,1.55c-.62,4.27,4.05,6.37,8.64,6.37,4,0,8.63-1.37,9.25-5.65.48-3.27-1.25-4.27-4-5.18l-9.75-3.19c-6.36-2.09-9.83-4.64-8.76-12,1.6-11.1,14.25-14.93,23.62-14.93,10.6,0,19.64,2.92,17.7,15Z" transform="translate(-85 -69.43)"></path></g><g id="Layer_4" data-name="Layer 4"><path class="cls-2" d="M139.49,69.43A54.48,54.48,0,0,0,85,123.92V78.43a9,9,0,0,1,9-9Z" transform="translate(-85 -69.43)"></path><path class="cls-2" d="M139.49,355.79H94a9,9,0,0,1-9-9V301.3A54.48,54.48,0,0,0,139.49,355.79Z" transform="translate(-85 -69.43)"></path><path class="cls-2" d="M1449.4,301.3v45.49a9,9,0,0,1-9,9h-45.5A54.49,54.49,0,0,0,1449.4,301.3Z" transform="translate(-85 -69.43)"></path><path class="cls-2" d="M1449.4,78.43v45.49a54.49,54.49,0,0,0-54.5-54.49h45.5A9,9,0,0,1,1449.4,78.43Z" transform="translate(-85 -69.43)"></path><rect class="cls-1" width="1364.4" height="286.36" rx="54"></rect><polygon class="cls-3" points="221.19 157 208.49 211.6 169.73 211.6 203.26 68.05 310.58 68.05 303.05 99.62 234.56 99.62 228.63 125.44 293.72 125.44 286.19 157 221.19 157"></polygon><polygon class="cls-3" points="342.93 157 330.23 211.6 291.47 211.6 325 68.05 432.32 68.05 424.79 99.62 356.3 99.62 350.37 125.44 415.46 125.44 407.93 157 342.93 157"></polygon><polygon class="cls-3" points="413.21 211.6 446.74 68.05 485.49 68.05 451.96 211.6 413.21 211.6"></polygon><path class="cls-3" d="M678.09,272.92c-9.64,6.26-26.5,9.31-51.56,9.31-22.6,0-37.84-2-46.59-6.19-6.8-3.23-14.91-10.64-14.91-27.53,0-6.4,1.18-15.1,3.62-26.59L573.91,198c5.45-25.21,12.88-47.19,24.7-55.36,11.59-8,33-6.13,63.61-6.13,18.07,0,30.33,1.75,37.48,5.34,5.66,2.84,12.41,9.21,12.41,23.4a67,67,0,0,1-.71,9c-.44,3.29-1,6.93-1.77,10.83l-.69,4.83H670l1.49-6.89c0-.21.07-.43.12-.64a42.14,42.14,0,0,0,1.12-8.32c0-2.8-1-3.19-1.81-3.5-1.58-.61-6-1.64-17.49-1.64-22.18,0-29.5.91-31,2.21-2,1.67-4.41,8.84-7.88,23.92-2.88,12.52-5.16,22.62-6.77,30a82.67,82.67,0,0,0-2.29,16.33c0,3.74.81,6,2.41,6.61,1.78.71,6.81,1.91,20.61,1.91,17.12,0,23.26-2,25.4-3.14,3.17-1.74,5.73-6.42,7.39-13.54l0-.11,1.76-6.26h38.33L699.49,234C695.05,253.7,688.05,266.44,678.09,272.92Z" transform="translate(-85 -69.43)"></path><path class="cls-3" d="M843.82,141l-6.18,25.9a2.82,2.82,0,0,1-2.75,2.18H767.58a2.84,2.84,0,0,0-2.76,2.19L760.47,190a2.83,2.83,0,0,0,2.76,3.47h61A2.83,2.83,0,0,1,827,197l-5.5,23.51a2.84,2.84,0,0,1-2.76,2.19H755.12a2.83,2.83,0,0,0-2.76,2.2L747.51,246a2.84,2.84,0,0,0,2.77,3.46h65.39a2.83,2.83,0,0,1,2.75,3.49l-6.18,25.91a2.83,2.83,0,0,1-2.75,2.17H704.09a2.83,2.83,0,0,1-2.76-3.47l32.21-137.89a2.84,2.84,0,0,1,2.76-2.19H841.06A2.84,2.84,0,0,1,843.82,141Z" transform="translate(-85 -69.43)"></path><rect class="cls-3" x="1067.2" y="67.9" width="15.99" height="142.16"></rect><polygon class="cls-3" points="1335.33 81.75 1260.09 81.75 1260.09 129.92 1332.13 129.92 1332.13 143.35 1260.09 143.35 1260.09 196.21 1335.33 196.21 1335.33 210.06 1244.1 210.06 1244.1 67.9 1335.33 67.9 1335.33 81.75"></polygon><path class="cls-3" d="M1104,215.76q14.49-2.34,19.5-10t5-27.7q0-22.38-9.37-31.55T1087,137.33h-67.56V279.49h16V222.37h53.71q21.53,0,21.53,24.72v32.4h16v-36Q1126.62,217.9,1104,215.76Zm-22.38-7.25H1035.4V151.18h51.79q15.78,0,20.57,5.86t4.8,24.83q0,15.57-6.4,21.1T1081.65,208.51Z" transform="translate(-85 -69.43)"></path><path class="cls-3" d="M1302.46,151q-10.87-13.64-41.35-13.64h-65.65V279.49h69.7q28.56,0,38.36-15.56t9.81-60.32Q1313.33,164.61,1302.46,151ZM1290,255.51q-7.35,10.13-32.29,10.13h-46.25V151.18h49.66q23.87,0,30.05,10.23t6.18,49.66Q1297.34,245.39,1290,255.51Z" transform="translate(-85 -69.43)"></path><path class="cls-3" d="M991.5,146.49q-9-9.17-32.61-9.16h-65V279.49h16V223.86h47.32q25.58,0,34.42-9.06t8.85-34.63Q1000.45,155.66,991.5,146.49Zm-13.43,58.72q-6.39,4.8-30.27,4.8H909.86V151.18H959.1q16.62,0,21,5.43t4.37,25.9Q984.46,200.42,978.07,205.21Z" transform="translate(-85 -69.43)"></path><path class="cls-3" d="M258.46,156.19c-2.51-7-8.33-12.22-17.28-15.42-8.09-2.89-21.92-4.29-42.27-4.29-15.9,0-28.73,1.41-38.15,4.2-9.86,2.92-17.79,7.57-23.59,13.81a65.6,65.6,0,0,0-13,20.45c-2.86,7.19-5.84,17.4-8.88,30.33s-4.94,21.91-5.77,27.19a97.75,97.75,0,0,0-1.26,15c0,14.09,5.09,23.66,15.13,28.43,8.89,4.23,24.34,6.29,47.24,6.29,17.32,0,30.43-1.45,40.07-4.42,10-3.08,17.89-8,23.49-14.68a68.2,68.2,0,0,0,11.84-19.77c2.43-6.51,5.57-17.86,9.6-34.68,4.07-17,6.05-28.83,6.05-36.09A49.39,49.39,0,0,0,258.46,156.19ZM222,183.66c-.41,2.68-.9,5.27-1.45,7.67L215.72,212c-5.6,23.67-10,30.66-12.12,32.72-2,1.9-7.95,5.1-25.93,5.1-17.38,0-24.2-1.09-26.88-2-1-.35-3.14-1.08-3.14-6.71a62.13,62.13,0,0,1,1.23-9.65c.86-4.85,3.09-15,6.62-30.12,4.18-17.93,7.9-24.83,10.28-27.47,1.38-1.52,6.81-5.05,27.44-5.05,16,0,22.79,1.28,25.63,2.35,1.94.74,3.74,2,3.74,6.57A40.5,40.5,0,0,1,222,183.66Z" transform="translate(-85 -69.43)"></path></g></svg> 