<?xml version="1.0" encoding="utf-8"?>
<!-- Generator: Adobe Illustrator 25.3.1, SVG Export Plug-In . SVG Version: 6.00 Build 0)  -->
<svg version="1.1" id="Layer_4" xmlns="http://www.w3.org/2000/svg" xmlns:xlink="http://www.w3.org/1999/xlink" x="0px" y="0px"
	 viewBox="0 0 1920 1080" style="enable-background:new 0 0 1920 1080;" xml:space="preserve">
<style type="text/css">
	.st0{opacity:0.25;}
	.st1{fill:#C5C4C4;}
	.st2{fill:none;}
	.st3{fill:#FFFFFF;}
</style>
<g class="st0">
	<g>
		<path class="st1" d="M1500.7,395c6.8,0,12.8,4.9,12.8,12.4c0,7.6-6,12.5-12.8,12.5s-12.8-4.9-12.8-12.5
			C1487.9,399.9,1493.9,395,1500.7,395z M1500.7,417.3c5.2,0,9.4-4.1,9.4-9.8s-4.2-9.8-9.4-9.8c-5.2,0-9.4,4.1-9.4,9.8
			C1491.3,413.2,1495.5,417.3,1500.7,417.3z M1495.7,400.5h5.3c3.5,0,5.5,1.1,5.5,4.1c0,2.6-1.6,3.6-3.7,3.7l3.7,6.1h-2.9l-3.4-6
			h-1.7v6h-2.8V400.5z M1498.6,406.3h2.4c1.5,0,2.7-0.2,2.7-1.9c0-1.5-1.6-1.7-2.8-1.7h-2.3L1498.6,406.3L1498.6,406.3z"/>
	</g>
	<line class="st2" x1="632.3" y1="420" x2="486.4" y2="420"/>
	<g>
		<path class="st1" d="M442.5,459c0.9-6.3-2.5-9.5-8.1-9.5c-11.9,0-18.9,11.7-20.4,21.5c-1,7,1.6,13.2,10,13.2
			c6.4,0,12-4.8,13.9-10.2h11.6c-6.8,14.2-15.5,19.6-27,19.6c-14.7,0-22.2-8.2-20.1-22.6c2.5-16.6,15.6-31,33.3-31
			c12.2,0,20.4,6.5,18.3,19H442.5z"/>
		<path class="st1" d="M479.5,454.3c10.5,0,17,5,15.5,15.7c-1.9,13-11.7,23.3-25.6,23.3c-10.6,0-16.7-5.4-15.2-16
			C456,464.8,465.9,454.3,479.5,454.3z M471,485.7c7.8,0,12.6-9.3,13.5-15.5c0.7-4.9-1-8.2-6.5-8.2c-7.7,0-12.4,9.2-13.3,15.4
			C464.1,481.7,466.1,485.7,471,485.7z"/>
		<path class="st1" d="M507.5,455.3h10l-1.9,5.2h0.1c3.8-4.2,8.8-6.2,14.2-6.2c4.6,0,8,2,8.3,6.4c3.1-3.8,9-6.4,13.8-6.4
			c6,0,11.1,3,10.2,9.4c-0.3,2.3-1.3,4.7-2.1,6.9l-7.9,21.8h-10.5l8.4-23.4c0.3-1.1,0.6-1.9,0.7-2.6c0.3-2.2-1.3-3.9-4-3.9
			c-5.6,0-9.6,5.7-11.3,10.2l-7.1,19.8H518l8.4-23.4c0.3-1.1,0.6-1.9,0.7-2.6c0.3-2.2-1.3-3.9-4-3.9c-5.6,0-9.6,5.7-11.3,10.2
			l-7.1,19.8h-10.5L507.5,455.3z"/>
		<path class="st1" d="M574.3,455.3h10l-1.9,5.2h0.1c3.8-4.2,8.8-6.2,14.2-6.2c4.6,0,8,2,8.3,6.4c3.1-3.8,9-6.4,13.8-6.4
			c6,0,11.1,3,10.2,9.4c-0.3,2.3-1.3,4.7-2.1,6.9l-7.9,21.8h-10.5l8.4-23.4c0.3-1.1,0.6-1.9,0.7-2.6c0.3-2.2-1.3-3.9-4-3.9
			c-5.6,0-9.6,5.7-11.3,10.2l-7.1,19.8h-10.5l8.4-23.4c0.3-1.1,0.6-1.9,0.7-2.6c0.3-2.2-1.3-3.9-4-3.9c-5.6,0-9.6,5.7-11.3,10.2
			l-7.1,19.8H561L574.3,455.3z"/>
		<path class="st1" d="M641.9,476.3c-0.2,0.9-0.3,1.6-0.4,2.1c-0.6,4.3,1.7,7.2,7.4,7.2c4.2,0,6.7-2.7,8.6-5.1H668
			c-4.5,8.3-10.6,12.7-21.6,12.7c-10.2,0-16.1-5.7-14.6-16.2c1.7-11.8,11.3-22.8,24.3-22.8c10.6,0,17,5.4,15.4,16.2
			c-0.3,2-0.8,4-1.4,5.8L641.9,476.3L641.9,476.3z M661.5,469.8c0.5-3.8,0.2-7.9-5.9-7.9c-5.9,0-9.4,3.7-11.5,7.9H661.5z"/>
		<path class="st1" d="M683.5,455.3h10L691,462l0.1,0.1c3.1-5.1,8.7-7.8,14.3-7.8c1.1,0,2.1,0.1,3.2,0.2l-3.6,9.9
			c-1.4-0.3-2.9-0.6-4.3-0.6c-8,0-11.8,5.9-14.1,12.2l-5.9,16.4h-10.5L683.5,455.3z"/>
		<path class="st1" d="M732.2,468.1c0.6-4.4-1.5-6.2-6.1-6.2c-8,0-12,9.3-13,15.7c-0.6,4.4,0.8,8,6.1,8c4.6,0,7.8-3.2,9.5-6.9h10.5
			c-4.5,9.2-11.9,14.5-21.8,14.5c-10.6,0-16.2-5.1-14.7-15.9c1.8-12.6,11.2-23.1,24.9-23.1c9.3,0,16.3,4,15.1,13.8h-10.5V468.1z"/>
		<path class="st1" d="M753.4,455.3h10.5l-13.5,37h-10.5L753.4,455.3z M765.9,449.6h-10.5l3.1-8.4H769L765.9,449.6z"/>
		<path class="st1" d="M768,466.5c2.7-9.3,11.2-12.2,19.8-12.2c6.8,0,15.8,1.4,14.4,9.7c-0.2,1.6-0.9,3.9-1.7,6.2l-5.5,14.9
			c-0.6,1.3-1,3.6-1.2,5c-0.1,0.6-0.1,1.5,0.1,2.1h-10.5l0.5-3.7c-3.3,3.1-8,4.7-12.3,4.7c-8.3,0-11.7-4.6-11-9.7
			c1-7.1,7.2-11.5,16.4-12.6c10-1.1,14.6-0.6,15.3-5.4c0.5-3.7-3.3-4.5-6-4.5c-3.8,0-7.3,1.7-8.5,5.4L768,466.5L768,466.5z
			 M789,474.6c-2.9,1.5-6.1,1.6-9.1,1.8c-4,0.4-7.9,1.4-8.6,6c-0.4,2.8,2.1,4.2,5.2,4.2c6.5,0,9.3-4.4,11-8.4L789,474.6z"/>
		<path class="st1" d="M819.9,441.2h10.5l-18.6,51.1h-10.5L819.9,441.2z"/>
		<path class="st1" d="M887.6,459c0.9-6.3-2.5-9.5-8.1-9.5c-11.9,0-18.9,11.7-20.4,21.5c-1,7,1.6,13.2,10,13.2
			c6.4,0,12-4.8,13.9-10.2h11.6c-6.8,14.2-15.5,19.6-27,19.6c-14.7,0-22.2-8.2-20.1-22.6c2.4-16.5,15.5-30.9,33.2-30.9
			c12.2,0,20.4,6.5,18.3,19L887.6,459L887.6,459z"/>
		<path class="st1" d="M914.2,441.2h10.5L906,492.3h-10.5L914.2,441.2z"/>
		<path class="st1" d="M928.7,476.3c-0.2,0.9-0.3,1.6-0.4,2.1c-0.6,4.3,1.7,7.2,7.4,7.2c4.2,0,6.7-2.7,8.6-5.1h10.5
			c-4.5,8.3-10.6,12.7-21.6,12.7c-10.2,0-16.1-5.7-14.6-16.2c1.7-11.8,11.3-22.8,24.3-22.8c10.6,0,17,5.4,15.4,16.2
			c-0.3,2-0.8,4-1.4,5.8L928.7,476.3L928.7,476.3z M948.2,469.8c0.5-3.8,0.2-7.9-5.9-7.9c-5.9,0-9.4,3.7-11.5,7.9H948.2z"/>
		<path class="st1" d="M966,466.5c2.7-9.3,11.2-12.2,19.8-12.2c6.8,0,15.8,1.4,14.4,9.7c-0.2,1.6-0.9,3.9-1.7,6.2l-5.5,14.9
			c-0.6,1.3-1,3.6-1.2,5c-0.1,0.6-0.1,1.5,0.1,2.1h-10.5l0.5-3.7c-3.3,3.1-8,4.7-12.3,4.7c-8.3,0-11.7-4.6-11-9.7
			c1-7.1,7.2-11.5,16.4-12.6c10-1.1,14.6-0.6,15.3-5.4c0.5-3.7-3.3-4.5-6-4.5c-3.8,0-7.3,1.7-8.5,5.4L966,466.5L966,466.5z
			 M987,474.6c-2.9,1.5-6.1,1.6-9.1,1.8c-4,0.4-7.9,1.4-8.6,6c-0.4,2.8,2.1,4.2,5.2,4.2c6.5,0,9.3-4.4,11-8.4L987,474.6z"/>
		<path class="st1" d="M1012.6,455.3h10l-1.9,5.2h0.1c4-4.1,8.8-6.2,14.2-6.2c7.2,0,10.6,3.5,9.7,10c-0.2,1.5-1.5,5.1-2,6.4
			l-7.9,21.7h-10.5l7.8-21.7c0.5-1.1,1.2-3.5,1.3-4.5c0.3-2.2-2-3.8-4.5-3.8c-6.3,0-10.3,5.2-12.2,10.3l-7.1,19.7h-10.5
			L1012.6,455.3z"/>
		<path class="st1" d="M1057.8,455.3h10.5l-13.5,37h-10.5L1057.8,455.3z M1070.4,449.6h-10.5l3.1-8.4h10.5L1070.4,449.6z"/>
		<path class="st1" d="M1076.8,455.3h10l-1.9,5.2h0.1c4-4.1,8.8-6.2,14.2-6.2c7.2,0,10.6,3.5,9.7,10c-0.2,1.5-1.5,5.1-2,6.4
			l-7.9,21.7h-10.5l7.8-21.7c0.5-1.1,1.2-3.5,1.3-4.5c0.3-2.2-2-3.8-4.5-3.8c-6.3,0-10.3,5.2-12.2,10.3l-7.1,19.7h-10.5
			L1076.8,455.3z"/>
		<path class="st1" d="M1145.6,490.4c-4.2,11.2-10.7,16-23.3,16c-7.7,0-15.8-3.2-14.5-12.1h10.5c-0.7,3.7,2.7,5.3,6.1,5.3
			c6.6,0,9.4-5.7,12.5-12.9l-0.1-0.1c-3.2,3.5-7,5.2-11.2,5.2c-9.1,0-13.8-6-12.5-15.1c1.6-10.8,10.2-22.3,22.5-22.3
			c5.2,0,9.3,1.8,10.7,6.7h0.1l2-5.7h10L1145.6,490.4z M1123.5,475.9c-0.6,4.4,1,8.2,5.9,8.2c7.5,0,12.3-7.8,13.2-14.1
			c0.7-4.7-1.3-8-6.4-8C1129.2,462,1124.3,470,1123.5,475.9z"/>
		<path class="st1" d="M1188.7,475.4c-1.4,7.2,3.4,9.4,10,9.4c4.6,0,10.3-2.1,11.1-7.2c0.7-5-5.9-6-12.2-7.9
			c-6.3-2-12.6-4.9-11.3-13.7c1.6-11.4,13-15.9,23.2-15.9c10.8,0,19.1,4.7,17.4,16.5h-11c1.1-5.7-2.9-7.7-8.3-7.7
			c-4.4,0-9.5,1.6-10.1,6.4c-0.7,5.1,8,6.4,11.5,7.2c8,2.1,13.3,5.2,12,14.3c-1.8,12.2-13.9,16.9-23.9,16.9
			c-14.5,0-21-5.9-19.3-18.2L1188.7,475.4L1188.7,475.4z"/>
		<path class="st1" d="M1235.9,476.3c-0.2,0.9-0.3,1.6-0.4,2.1c-0.6,4.3,1.7,7.2,7.4,7.2c4.2,0,6.7-2.7,8.6-5.1h10.5
			c-4.5,8.3-10.6,12.7-21.6,12.7c-10.2,0-16.1-5.7-14.6-16.2c1.7-11.8,11.3-22.8,24.3-22.8c10.6,0,17,5.4,15.4,16.2
			c-0.3,2-0.8,4-1.4,5.8L1235.9,476.3L1235.9,476.3z M1255.4,469.8c0.5-3.8,0.2-7.9-5.9-7.9c-5.9,0-9.4,3.7-11.5,7.9H1255.4z"/>
		<path class="st1" d="M1277.5,455.3h10l-2.5,6.7l0.1,0.1c3.1-5.1,8.7-7.8,14.3-7.8c1.1,0,2.1,0.1,3.2,0.2l-3.6,9.9
			c-1.4-0.3-2.9-0.6-4.3-0.6c-8,0-11.8,5.9-14.1,12.2l-5.9,16.4h-10.5L1277.5,455.3z"/>
		<path class="st1" d="M1314.2,492.3h-11.9l0.3-37h10.8l-1.5,26.3h0.1l17.3-26.3h11.1L1314.2,492.3z"/>
		<path class="st1" d="M1345.9,455.3h10.5l-13.5,37h-10.5L1345.9,455.3z M1358.4,449.6h-10.5l3.1-8.4h10.5L1358.4,449.6z"/>
		<path class="st1" d="M1384.8,468.1c0.6-4.4-1.5-6.2-6.1-6.2c-8,0-12,9.3-13,15.7c-0.6,4.4,0.8,8,6.1,8c4.6,0,7.8-3.2,9.5-6.9h10.5
			c-4.5,9.2-11.9,14.5-21.8,14.5c-10.6,0-16.2-5.1-14.7-15.9c1.8-12.6,11.2-23.1,24.9-23.1c9.3,0,16.3,4,15.1,13.8h-10.5V468.1z"/>
		<path class="st1" d="M1406.5,476.3c-0.2,0.9-0.3,1.6-0.4,2.1c-0.6,4.3,1.7,7.2,7.4,7.2c4.2,0,6.7-2.7,8.6-5.1h10.5
			c-4.5,8.3-10.6,12.7-21.6,12.7c-10.2,0-16.1-5.7-14.6-16.2c1.7-11.8,11.3-22.8,24.3-22.8c10.6,0,17,5.4,15.4,16.2
			c-0.3,2-0.8,4-1.4,5.8L1406.5,476.3L1406.5,476.3z M1426.1,469.8c0.5-3.8,0.2-7.9-5.9-7.9c-5.9,0-9.4,3.7-11.5,7.9H1426.1z"/>
		<path class="st1" d="M1465.5,466.1c0.4-3.1-1.2-5-5.2-5c-3.7,0-6.6,1-6.9,3.7c-0.2,1.6,0.9,2.6,4.3,3.7l5,1.6
			c5.3,1.8,9.4,4.4,8.5,10.6c-1.3,9.2-11.2,12.6-20,12.6c-7.4,0-15.8-2.9-14.6-11.5l0.2-1.5h9.7l-0.2,1.2c-0.5,3.4,3.2,5,6.8,5
			c3.2,0,6.8-1.1,7.3-4.4c0.4-2.6-1-3.4-3.2-4.1l-7.7-2.5c-5-1.6-7.7-3.7-6.9-9.4c1.3-8.7,11.2-11.7,18.6-11.7
			c8.3,0,15.4,2.3,13.9,11.8L1465.5,466.1L1465.5,466.1z"/>
	</g>
	<path class="st2" d="M444.5,199.4c-23.7,0-42.9,19.2-42.9,42.9v-35.8c0-3.9,3.2-7.1,7.1-7.1L444.5,199.4L444.5,199.4z"/>
	<path class="st2" d="M444.5,424.7h-35.8c-3.9,0-7.1-3.2-7.1-7.1v-35.8C401.7,405.5,420.9,424.7,444.5,424.7z"/>
	<path class="st2" d="M1474.9,381.8v35.8c0,3.9-3.2,7.1-7.1,7.1H1432C1455.7,424.7,1474.9,405.5,1474.9,381.8z"/>
	<path class="st2" d="M1474.9,206.5v35.8c0-23.7-19.2-42.9-42.9-42.9h35.8C1471.7,199.4,1474.9,202.6,1474.9,206.5z"/>
	<path class="st1" d="M1474.9,241.9v140.3c0,23.5-19,42.5-42.5,42.5H444.1c-23.5,0-42.5-19-42.5-42.5V241.9
		c0-23.5,19-42.5,42.5-42.5h988.3C1455.9,199.4,1474.9,218.4,1474.9,241.9z"/>
	<polygon class="st3" points="575.7,322.9 565.7,365.9 535.2,365.9 561.6,252.9 646,252.9 640,277.8 586.2,277.8 581.5,298.1 
		632.7,298.1 626.8,322.9 	"/>
	<polygon class="st3" points="671.4,322.9 661.4,365.9 630.9,365.9 657.3,252.9 741.7,252.9 735.8,277.8 681.9,277.8 677.3,298.1 
		728.5,298.1 722.5,322.9 	"/>
	<polygon class="st3" points="726.7,365.9 753.1,252.9 783.6,252.9 757.2,365.9 	"/>
	<path class="st3" d="M868.2,359.5c-7.6,4.9-20.8,7.3-40.6,7.3c-17.8,0-29.8-1.6-36.6-4.9c-5.4-2.5-11.7-8.4-11.7-21.7
		c0-5,0.9-11.9,2.8-20.9l4.1-18.8c4.3-19.8,10.1-37.1,19.4-43.5c9.1-6.3,26-4.8,50-4.8c14.2,0,23.9,1.4,29.5,4.2
		c4.5,2.2,9.8,7.2,9.8,18.4c0,2-0.2,4.3-0.6,7.1c-0.3,2.6-0.8,5.5-1.4,8.5l-0.5,3.8h-30.6l1.2-5.4c0-0.2,0.1-0.3,0.1-0.5
		c0.6-2.7,0.9-4.9,0.9-6.5c0-2.2-0.8-2.5-1.4-2.8c-1.2-0.5-4.7-1.3-13.8-1.3c-17.4,0-23.2,0.7-24.4,1.7c-1.5,1.3-3.5,6.9-6.2,18.8
		c-2.3,9.8-4.1,17.8-5.3,23.6c-1.2,5.5-1.8,9.8-1.8,12.8c0,2.9,0.6,4.7,1.9,5.2c1.4,0.6,5.4,1.5,16.2,1.5c13.5,0,18.3-1.5,20-2.5
		c2.5-1.4,4.5-5.1,5.8-10.7V328l1.4-4.9h30.2l-1.5,5.6C881.5,344.4,876,354.4,868.2,359.5z"/>
	<path class="st3" d="M998.6,255.7l-4.9,20.4c-0.2,1-1.1,1.7-2.2,1.7h-52.9c-1,0-1.9,0.7-2.2,1.7l-3.4,14.8
		c-0.3,1.4,0.7,2.7,2.2,2.7h48c1.4,0,2.5,1.3,2.2,2.7l-4.3,18.5c-0.2,1-1.1,1.7-2.2,1.7h-50c-1,0-1.9,0.7-2.2,1.7l-3.8,16.6
		c-0.3,1.4,0.7,2.7,2.2,2.7h51.4c1.4,0,2.5,1.3,2.2,2.7l-4.9,20.4c-0.2,1-1.1,1.7-2.2,1.7h-82.9c-1.4,0-2.5-1.3-2.2-2.7l25.3-108.5
		c0.2-1,1.1-1.7,2.2-1.7h82.4C997.8,252.9,998.9,254.3,998.6,255.7z"/>
	<rect x="1241.1" y="252.8" class="st3" width="12.6" height="111.8"/>
	<polygon class="st3" points="1452,263.7 1392.8,263.7 1392.8,301.6 1449.5,301.6 1449.5,312.2 1392.8,312.2 1392.8,353.8 
		1452,353.8 1452,364.7 1380.3,364.7 1380.3,252.8 1452,252.8 	"/>
	<path class="st3" d="M1203.2,314.5c7.6-1.2,12.7-3.9,15.3-7.9s3.9-11.3,3.9-21.8c0-11.7-2.5-20-7.4-24.8s-13.4-7.2-25.3-7.2h-53.1
		v111.8h12.6v-44.9h38.1h4.2c11.3,0,16.9,6.5,16.9,19.4v25.5h12.6v-28.3C1221,322.9,1215.1,315.6,1203.2,314.5z M1185.6,308.8h-36.4
		v-45.1h40.8c8.3,0,13.7,1.5,16.2,4.6s3.8,9.6,3.8,19.5c0,8.2-1.7,13.7-5,16.6C1201.6,307.4,1195.1,308.8,1185.6,308.8z"/>
	<path class="st3" d="M1359.3,263.6c-5.7-7.2-16.5-10.7-32.5-10.7h-51.6v111.8h54.8c15,0,25-4.1,30.2-12.2c5.1-8.2,7.7-24,7.7-47.4
		C1367.9,284.5,1365,270.7,1359.3,263.6z M1349.5,345.8c-3.9,5.3-12.3,8-25.4,8h-36.4v-90h39.1c12.5,0,20.4,2.7,23.6,8
		c3.2,5.4,4.9,18.4,4.9,39.1C1355.3,328.8,1353.4,340.5,1349.5,345.8z"/>
	<path class="st3" d="M1114.7,260c-4.7-4.8-13.2-7.2-25.7-7.2h-4.4h-46.8v111.8h12.6v-43.8h32.4h4.9c13.4,0,22.4-2.4,27.1-7.1
		c4.6-4.7,7-13.8,7-27.2C1121.8,273.7,1119.4,264.8,1114.7,260z M1104.2,306.2c-3.4,2.5-11.3,3.8-23.8,3.8h-29.8v-46.3h33.9h4.9
		c8.7,0,14.2,1.4,16.5,4.3c2.3,2.9,3.4,9.6,3.4,20.4C1109.2,297.8,1107.5,303.7,1104.2,306.2z"/>
	<path class="st3" d="M538.1,267.7c-2-5.5-6.6-9.6-13.6-12.1c-6.4-2.3-17.2-3.4-33.2-3.4c-12.5,0-22.6,1.1-30,3.3
		c-7.7,2.3-14,5.9-18.5,10.9c-4.4,4.7-7.8,10.2-10.2,16.1c-2.2,5.7-4.6,13.7-7,23.9s-3.9,17.2-4.5,21.4c-0.7,4.2-1,8.2-1,11.8
		c0,11.1,4,18.6,11.9,22.4c7,3.3,19.1,4.9,37.2,4.9c13.6,0,23.9-1.1,31.5-3.5c7.9-2.4,14.1-6.3,18.5-11.6c4.2-5,7.3-10.2,9.3-15.5
		c1.9-5.1,4.4-14.1,7.6-27.3c3.2-13.4,4.8-22.7,4.8-28.4C540.7,276.8,539.8,272.4,538.1,267.7z M509.4,289.3c-0.3,2.1-0.7,4.1-1.1,6
		l-3.8,16.3c-4.4,18.6-7.9,24.1-9.5,25.7c-1.5,1.5-6.3,4-20.4,4c-13.7,0-19-0.9-21.1-1.6c-0.8-0.3-2.5-0.8-2.5-5.3
		c0-1,0.2-3.1,1-7.6c0.7-3.8,2.4-11.8,5.2-23.7c3.3-14.1,6.2-19.5,8.1-21.6c1.1-1.2,5.4-4,21.6-4c12.6,0,17.9,1,20.2,1.9
		c1.5,0.6,2.9,1.6,2.9,5.2C509.9,285.4,509.8,286.7,509.4,289.3z"/>
</g>
</svg>
