<?xml version="1.0" encoding="utf-8"?>
<!-- Generator: Adobe Illustrator 25.3.0, SVG Export Plug-In . SVG Version: 6.00 Build 0)  -->
<svg version="1.1" id="_x2014_ÎÓÈ_x5F_1" xmlns="http://www.w3.org/2000/svg" xmlns:xlink="http://www.w3.org/1999/xlink"
	 x="0px" y="0px" width="152.8px" height="152.8px" viewBox="0 0 152.8 152.8" style="enable-background:new 0 0 152.8 152.8;"
	 xml:space="preserve">
<style type="text/css">
	.st0{fill:#00954C;}
</style>
<path class="st0" d="M76.4,152.8C34.3,152.8,0,118.5,0,76.4S34.3,0,76.4,0c42.1,0,76.4,34.3,76.4,76.4S118.5,152.8,76.4,152.8z
	 M76.4,4.8C36.9,4.8,4.8,36.9,4.8,76.4S36.9,148,76.4,148c39.5,0,71.6-32.1,71.6-71.6S115.9,4.8,76.4,4.8z"/>
<g>
	<path class="st0" d="M109.2,115.6H97.9c-0.9,0-1.6-0.7-1.6-1.6s0.7-1.6,1.6-1.6h11.3c0.9,0,1.6,0.7,1.6,1.6
		S110.1,115.6,109.2,115.6z"/>
	<g>
		<path class="st0" d="M54.4,89.2c-0.6-0.5-1.2-1-1.6-1.7l-16.2,2.6c-5.9,0.9-10.3,6.5-9.9,12.4l1.7,23.8c0.1,0.9,0.8,1.5,1.6,1.5
			c0,0,0.1,0,0.1,0c0.9-0.1,1.6-0.8,1.5-1.7L30,102.3c-0.3-4.3,2.9-8.3,7.1-9l19.4-3.1C55.8,90,55.1,89.7,54.4,89.2z"/>
		<path class="st0" d="M69.8,87.4c-0.3-0.8-1.3-1.2-2.1-0.9c-0.8,0.3-1.2,1.3-0.9,2.1l3.5,8.3c0.5,1.1,0.6,2.3,0.4,3.5l-2.6,13.7
			l-7.4-24.1c-1.1,0.4-2.2,0.5-3.3,0.3l9.5,30.9c0.2,0.7,0.9,1.2,1.6,1.1c0.7,0,1.4-0.6,1.5-1.3l3.9-20.1c0.4-1.8,0.2-3.7-0.6-5.4
			L69.8,87.4z"/>
	</g>
	<g>
		<path class="st0" d="M94.4,90.5c-0.8,0-1.5-0.1-2.2-0.4l-7.4,24.1l-2.6-13.7c-0.2-1.2-0.1-2.4,0.4-3.5l3.5-8.3
			c0.3-0.8,0-1.8-0.9-2.1c-0.8-0.3-1.8,0-2.1,0.9l-3.5,8.3c-0.7,1.7-0.9,3.6-0.6,5.4l3.9,20.1c0.1,0.7,0.8,1.3,1.5,1.3
			c0.8,0.1,1.4-0.4,1.6-1.1l9.5-30.9C95.1,90.4,94.7,90.5,94.4,90.5z"/>
		<path class="st0" d="M116.1,90.1l-16.2-2.6c-0.4,0.6-1,1.2-1.6,1.7c-0.7,0.5-1.4,0.8-2.1,1l19.4,3.1c4.2,0.7,7.4,4.7,7.1,9
			l-1.7,23.8c-0.1,0.9,0.6,1.7,1.5,1.7c0,0,0.1,0,0.1,0c0.8,0,1.6-0.7,1.6-1.5l1.7-23.8C126.4,96.6,121.9,91,116.1,90.1z"/>
	</g>
	<path class="st0" d="M94.4,87.2c-0.7,0-1.4-0.2-2.1-0.7L76.4,74.9L60.4,86.6c-1.2,0.9-2.9,0.9-4.1,0c-1.2-0.9-1.7-2.4-1.3-3.9
		l6.1-18.8l-16-11.6c-1.2-0.9-1.7-2.4-1.3-3.9c0.5-1.5,1.8-2.4,3.3-2.4c0,0,0,0,0,0l19.7,0l6.1-18.8c0.5-1.5,1.8-2.4,3.3-2.4
		c1.5,0,2.8,0.9,3.3,2.4l6.1,18.8l19.7,0c0,0,0,0,0,0c1.5,0,2.8,0.9,3.3,2.4c0.5,1.5,0,3-1.3,3.9l-16,11.6l6.1,18.8
		c0.5,1.5,0,3-1.3,3.9C95.8,87,95.1,87.2,94.4,87.2z M47.3,49.3c-0.1,0-0.2,0-0.2,0.2c-0.1,0.2,0,0.2,0.1,0.3l17,12.3
		c0.6,0.4,0.8,1.2,0.6,1.8l-6.5,19.9c0,0.1-0.1,0.2,0.1,0.3c0.1,0.1,0.2,0,0.3,0l16.9-12.3c0.6-0.4,1.3-0.4,1.9,0l16.9,12.3
		c0,0,0.1,0.1,0.3,0c0.1-0.1,0.1-0.2,0.1-0.3l-6.5-19.9c-0.2-0.7,0-1.4,0.6-1.8l17-12.3c0,0,0.1-0.1,0.1-0.3
		c-0.1-0.2-0.2-0.1-0.2-0.2l-20.9,0c0,0,0,0,0,0c-0.7,0-1.3-0.5-1.5-1.1l-6.4-19.9c0-0.1-0.1-0.2-0.2-0.2c-0.2,0-0.2,0.1-0.2,0.2
		l-6.4,19.9c-0.2,0.7-0.8,1.1-1.5,1.1c0,0,0,0,0,0L47.3,49.3C47.3,49.3,47.3,49.3,47.3,49.3z"/>
</g>
</svg>
